:SAMPLES-PER-SECOND 30
:FULLY-SPECIFIED
:DEGREES
531
root  51.4818 39.1973 10.0377 176.827 16.6803 178.013
RightUpLeg  0.732026 -13.2717 -6.24089
RightLeg  12.3446 -12.1206 1.88769
RightFoot  -10.6449 -0.0970826 4.07974
RightToes  5.47152e-009 0 -3.6325e-017
Spine  8.67281 -1.75916 11.9124
Spine1  15.1233 0.478198 -4.72133
HEad  -5.07273 11.0752 -17.0709
LeftShoulder1  0.17603 3.01626 -30.1883
LeftArm  -2.64811 -13.6889 -36.5531
LeftForeArm  17.3803 -72.5643 -38.6014
LeftHand  -0.00200894 4.64663 -3.99829
RightShoulder  -0.375501 -4.60336 27.0695
RightArm  -15.9615 -22.766 33.232
RightForeArm  104.469 72.6455 138.935
RightHand  -0.122573 -0.799532 -2.99857
LeftUpLeg  -16.7554 1.95157 -1.21547
LeftLeg  22.3718 -4.6724 -1.78764
LeftFoot  -0.716946 0.472341 -5.03457
LeftToes  -4.29285e-010 1.49941e-010 2.15559e-012
532
root  51.139 39.2423 10.099 177.699 11.8014 177.826
RightUpLeg  0.85346 -13.4641 -7.01032
RightLeg  11.4652 -16.2001 1.66943
RightFoot  -10.4364 -0.110924 4.9346
RightToes  5.47152e-009 0 -3.6325e-017
Spine  8.21158 -1.55931 11.5618
Spine1  14.0455 0.287422 -3.69438
HEad  -6.12803 10.2621 -17.902
LeftShoulder1  -0.129073 3.8549 -30.7755
LeftArm  -2.30283 -11.6243 -34.8292
LeftForeArm  18.9189 -73.1853 -40.4437
LeftHand  0.000689308 4.88366 -4.56436
RightShoulder  -0.245583 -4.22608 26.5664
RightArm  -12.3612 -22.6379 31.353
RightForeArm  101.75 73.4088 136.445
RightHand  -0.0907809 -0.968699 -2.25997
LeftUpLeg  -17.515 4.50078 -0.502404
LeftLeg  25.1846 -2.99099 -1.213
LeftFoot  -0.816001 0.278827 -2.97825
LeftToes  -4.29285e-010 1.49941e-010 2.15559e-012
533
root  50.719 39.3128 10.0917 178.231 6.49585 177.583
RightUpLeg  1.8278 -14.2742 -8.25466
RightLeg  10.1825 -19.9993 1.91611
RightFoot  -9.70616 -0.154451 6.2606
RightToes  5.47152e-009 0 -3.6325e-017
Spine  7.3209 -1.36061 12.0306
Spine1  14.1286 0.508118 -3.83356
HEad  -7.06007 8.64815 -17.8067
LeftShoulder1  -0.0899172 3.74739 -30.802
LeftArm  -2.04146 -10.1045 -34.2028
LeftForeArm  19.7317 -73.466 -41.3422
LeftHand  -0.00655945 5.12976 -4.46602
RightShoulder  -0.283243 -4.33559 26.7588
RightArm  -9.64163 -22.0392 29.5762
RightForeArm  97.7705 74.0164 133.943
RightHand  -0.167551 0.15871 -3.51187
LeftUpLeg  -17.3379 5.76876 0.0493972
LeftLeg  25.4639 -2.18105 -0.803463
LeftFoot  -0.901331 0.139453 -1.46902
LeftToes  -4.29285e-010 1.49941e-010 2.15559e-012
534
root  50.3817 39.3755 10.088 179.022 2.58562 177.63
RightUpLeg  2.32231 -14.074 -8.41282
RightLeg  8.6449 -24.0562 1.84035
RightFoot  -8.64404 -0.205867 6.22207
RightToes  5.47152e-009 0 -3.6325e-017
Spine  6.84058 -0.657415 11.86
Spine1  14.0292 1.08711 -3.58993
HEad  -8.51598 7.54777 -19.0528
LeftShoulder1  -0.115963 3.81677 -30.8986
LeftArm  -2.51171 -8.17634 -34.0185
LeftForeArm  22.065 -74.035 -43.1356
LeftHand  -0.00991401 5.10706 -4.39374
RightShoulder  -0.269304 -4.29727 26.5923
RightArm  -8.00081 -21.1532 29.3037
RightForeArm  93.7817 74.5998 131.293
RightHand  -0.239459 0.877021 -4.5488
LeftUpLeg  -17.0051 10.2998 0.957
LeftLeg  23.6703 -3.40502 -1.29559
LeftFoot  -1.35877 0.123768 -1.32039
LeftToes  -4.29285e-010 1.49941e-010 2.15559e-012
535
root  49.9184 39.4532 9.98646 179.348 -1.87975 177.326
RightUpLeg  3.68075 -14.5577 -9.6647
RightLeg  7.26603 -27.5788 2.31078
RightFoot  -7.37637 -0.276453 6.54015
RightToes  5.47152e-009 0 -3.6325e-017
Spine  7.22776 -0.482483 11.5726
Spine1  12.9294 1.20672 -3.5397
HEad  -9.12007 6.83142 -18.9827
LeftShoulder1  -0.123495 3.83283 -31.4229
LeftArm  -2.93641 -5.74419 -33.3677
LeftForeArm  24.7757 -74.7108 -45.6062
LeftHand  -0.0117332 4.9061 -4.10317
RightShoulder  -0.260183 -4.27185 26.484
RightArm  -7.4337 -20.8696 28.9182
RightForeArm  95.0628 74.68 131.208
RightHand  -0.194373 0.193493 -4.11813
LeftUpLeg  -15.9038 14.7047 0.821802
LeftLeg  20.2184 -3.49103 -1.07375
LeftFoot  -1.76941 0.0592031 -0.578992
LeftToes  -4.29285e-010 1.49941e-010 2.15559e-012
